<svg xmlns="http://www.w3.org/2000/svg" width="318" height="110" viewBox="0 0 318 110">
  <defs>
    <style>
      .cls-1 {
        fill: #5d5d5d;
        fill-rule: evenodd;
      }
    </style>
  </defs>
  <path id="Penis" class="cls-1" d="M1.065,70.887H23.814L23.6,69.735l-3.168-.288c-3.24-.216-3.6-0.5-3.6-1.08V50.01a26.955,26.955,0,0,0,4.392.288c11.446,0,19.438-4.9,19.438-13.1,0-7.271-6.263-11.3-18.862-11.3H1.137l0.216,1.152,2.376,0.288c3.312,0.288,3.744.5,3.744,1.08V68.151c0,0.576-.864,1.008-3.168,1.3l-3.024.288ZM21.007,48.858a18.771,18.771,0,0,1-4.175-.5V27.4s3.024-.072,3.672-0.072c6.911,0,10.151,3.959,10.151,10.943C30.653,44.682,26.694,48.858,21.007,48.858ZM44.049,70.887H82.564l1.872-14.758H82.564l-0.72,2.16C79.252,65.272,75.365,69.3,65.43,69.375l-5.975-.216V48.642l2.16,0.072c6.7,0.288,8.351,1.44,8.711,5.687l0.288,2.232,1.44,0.072,1.8-17.278H72.341l-0.792,2.3c-1.224,3.959-3.743,5.183-9.431,5.4l-2.664.072V27.476l4.823-.072c9.575-.072,13.03,2.592,15.334,10.871l0.648,2.376h1.872l-0.5-14.758H44.121l0.216,1.152,2.016,0.288c3.312,0.288,3.743.5,3.743,1.08V68.151c0,0.576-.936,1.008-3.24,1.3l-2.592.288Zm83.73,0.432h2.52l0.216-37.363c0-4.967,1.152-6.335,4.535-6.623l2.016-.288,0.216-1.152h-16.2l0.216,1.152,2.088,0.288c4.175,0.36,5.327,1.512,5.327,6.263l0.072,23.757h-0.216l-25.053-31.46H87.464l0.216,1.152,1.512,0.432c2.808,0.5,4.823,2.448,6.263,4.967L95.239,62.9c0,4.9-1.08,6.263-4.535,6.551l-2.016.288-0.216,1.152h16.27l-0.216-1.152-2.16-.288c-4.1-.36-5.327-1.44-5.327-6.191L96.967,33.38h0.216Zm12.461-.432h21.885l-0.216-1.152-2.376-.288c-3.167-.288-3.671-0.5-3.671-1.08V28.628c0-.5.792-1.08,3.167-1.3l2.952-.288,0.216-1.152H140.24l0.216,1.152,2.375,0.288c3.312,0.288,3.744.5,3.744,1.08V68.151c0,0.576-.936,1.08-3.168,1.3l-2.951.288Zm42.045,0.936c10.3,0,16.99-7.055,16.99-14.758,0-8.279-5.759-11.519-13.606-14.254-5.76-2.016-10.439-3.959-10.439-9.143,0-3.959,3.24-7.127,8.207-7.127a12.43,12.43,0,0,1,6.839,1.872l5.183,10.367h1.584l-0.216-13.318-3.167,1.008a36.555,36.555,0,0,0-9.935-1.512c-9.5,0-15.478,6.119-15.478,13.318,0,7.559,5.759,10.511,12.814,13.03,6.263,2.16,11.087,4.319,11.087,10.223,0,5.039-3.384,8.639-9.431,8.711a12.086,12.086,0,0,1-10.727-5.9l-3.023-7.127h-1.728l0.792,12.238A39.883,39.883,0,0,0,182.285,71.823Z"/>
  <path id="js" class="cls-1" d="M210.577,109.489c14.113,0,25.922-17.857,25.922-28.658V6.953c0-1.008,1.584-1.728,5.76-2.16l6.769-.576,0.432-2.16H212.017l0.432,2.16L218.5,4.648c6.049,0.432,6.769.864,6.769,1.872V79.679c0,18.866-4.9,26.786-12.961,26.786,3.024-4.9.288-12.1-6.049-12.1a6.812,6.812,0,0,0-7.2,6.913C199.056,106.033,203.808,109.489,210.577,109.489ZM285.6,94.08c18.866,0,31.971-13.105,31.971-27.65,0-15.553-11.521-22.034-26.355-27.218-12.241-4.464-21.313-8.929-21.313-20.018,0-9.217,7.056-16.561,18.289-16.561a27.773,27.773,0,0,1,15.266,4.608l7.776,17.57h2.16L312.534,1.048,306.2,2.776A55.15,55.15,0,0,0,288.772.04c-17.425,0-27.794,11.377-27.794,24.482,0,14.113,10.945,20.306,24.338,24.914,14.4,4.9,22.466,10.369,22.466,22.178,0,11.233-8.353,19.874-21.458,19.874-9.793,0-17.713-4.032-22.466-12.961L259.97,67.582h-2.3l1.584,21.89C266.882,92.064,276.963,94.224,285.6,94.08Z"/>
</svg>
